# xmcd CD database file
#
# Track frame offsets:
#	187
#	40085
#	49075
#	60930
#	78682
#	89212
#	104252
#	148725
#	179070
#	200795
#	224627
#
# Disc length: 4185 seconds
#
# Revision: 0
# Processed by: cddbd v1.5PL3 Copyright (c) Steve Scherf et al.
# Submitted via: CDex 1.51
#
DISCID=ae10570b
DTITLE=David A Jaffe - XXIst century mandolin
DYEAR=1994
DGENRE=New Age
TTITLE0=Grass Valley Fire, 1988
TTITLE1=American Miniatures NeXT Computer I. Roads West
TTITLE2=II. After the Battle of Bull Run
TTITLE3=III. The Dust Bowl
TTITLE4=IV. Gold
TTITLE5=V. Neighborhoods
TTITLE6=Ellis Island Sonata I. Arrival
TTITLE7=II. Ghosts from the Old Country
TTITLE8=III. Progress of Poverty?
TTITLE9=IV. Who Are my People
TTITLE10=Silicon Valley Breakdown
EXTD=YEAR: 1994
EXTT0=
EXTT1=
EXTT2=
EXTT3=
EXTT4=
EXTT5=
EXTT6=
EXTT7=
EXTT8=
EXTT9=
EXTT10=
PLAYORDER=
